<svg width="393" height="257" viewBox="0 0 393 257" fill="none" xmlns="http://www.w3.org/2000/svg">
<rect x="11" y="15" width="372" height="205" fill="white"/>
<path d="M28 27.5H27.5V28V203V203.5H28H365H365.5V203V28V27.5H365H28ZM258.5 159V158.5H258H135H134.5V159V168C134.5 176.56 141.44 183.5 150 183.5H243C251.56 183.5 258.5 176.56 258.5 168V159ZM0.5 20C0.5 9.23045 9.23045 0.5 20 0.5H373C383.77 0.5 392.5 9.23045 392.5 20V237C392.5 247.77 383.77 256.5 373 256.5H20C9.23044 256.5 0.5 247.77 0.5 237V20ZM30.5 200.5V30.5H362.5V200.5H30.5ZM110 140.5C124.083 140.5 135.5 129.083 135.5 115C135.5 100.917 124.083 89.5 110 89.5C95.9167 89.5 84.5 100.917 84.5 115C84.5 129.083 95.9167 140.5 110 140.5ZM283 140.5C297.083 140.5 308.5 129.083 308.5 115C308.5 100.917 297.083 89.5 283 89.5C268.917 89.5 257.5 100.917 257.5 115C257.5 129.083 268.917 140.5 283 140.5Z" fill="black" stroke="white"/>
</svg>
